<svg xmlns="http://www.w3.org/2000/svg" xmlns:xlink="http://www.w3.org/1999/xlink" width="500" zoomAndPan="magnify" viewBox="0 0 375 374.999991" height="500" preserveAspectRatio="xMidYMid meet" version="1.0"><defs><g><g id="id1"/></g></defs><g fill="rgb(100%, 87.059021%, 34.899902%)" fill-opacity="1"><g transform="translate(7.892582, 313.262755)"><g><path d="M 47.265625 -100.265625 C 35.898438 -100.265625 23.863281 -94.015625 11.15625 -81.515625 L 11.15625 -125.0625 C 21.90625 -136.21875 35.539062 -141.796875 52.0625 -141.796875 C 59.195312 -141.796875 65.914062 -141.097656 72.21875 -139.703125 C 78.519531 -138.304688 86.265625 -135.75 95.453125 -132.03125 C 108.992188 -126.351562 121.289062 -123.515625 132.34375 -123.515625 C 137.507812 -123.515625 143.320312 -125.164062 149.78125 -128.46875 C 156.238281 -131.769531 162.359375 -136.367188 168.140625 -142.265625 L 168.140625 -98.71875 C 157.296875 -87.457031 143.660156 -81.828125 127.234375 -81.828125 C 119.890625 -81.828125 112.988281 -82.597656 106.53125 -84.140625 C 100.082031 -85.691406 92.519531 -88.222656 83.84375 -91.734375 C 70.300781 -97.421875 58.109375 -100.265625 47.265625 -100.265625 Z M 47.265625 -100.265625 "/></g></g><g transform="translate(187.497956, 313.262755)"><g><path d="M 11.15625 -73.296875 L 107.234375 -112.359375 L 11.15625 -156.203125 L 11.15625 -202.234375 L 167.828125 -123.8125 L 167.828125 -97.171875 L 11.15625 -27.578125 Z M 11.15625 -73.296875 "/></g></g></g></svg>