<?xml version="1.0" standalone="no"?>
<!DOCTYPE svg PUBLIC "-//W3C//DTD SVG 20010904//EN"
 "http://www.w3.org/TR/2001/REC-SVG-20010904/DTD/svg10.dtd">
<svg version="1.0" xmlns="http://www.w3.org/2000/svg"
 width="512.000000pt" height="512.000000pt" viewBox="0 0 512.000000 512.000000"
 preserveAspectRatio="xMidYMid meet">

<g transform="translate(0.000000,512.000000) scale(0.100000,-0.100000)"
fill="#000000" stroke="none">
<path d="M2315 5109 c-800 -83 -1501 -518 -1927 -1196 -487 -774 -516 -1777
-75 -2578 199 -364 487 -676 837 -910 242 -162 602 -313 880 -369 214 -43 295
-51 530 -51 236 0 333 10 532 51 879 183 1616 843 1897 1699 93 282 126 493
126 805 0 301 -32 513 -116 775 -124 390 -330 728 -622 1024 -399 404 -893
653 -1462 737 -123 18 -478 26 -600 13z m495 -424 c823 -99 1508 -657 1769
-1441 126 -380 146 -766 61 -1158 -48 -219 -171 -510 -297 -701 -252 -382
-622 -677 -1045 -835 -103 -38 -143 -36 -182 11 l-26 31 0 356 c0 389 -6 445
-56 543 -14 30 -39 70 -54 89 l-28 36 87 12 c217 29 441 117 568 222 169 140
270 353 304 641 14 125 7 308 -17 399 -23 93 -82 214 -142 292 l-51 68 17 42
c12 33 16 78 17 198 0 135 -3 164 -23 230 -13 41 -29 81 -34 88 -40 48 -320
-44 -518 -172 -37 -24 -70 -43 -72 -41 -2 2 -60 15 -129 29 -260 53 -530 53
-801 0 l-136 -27 -65 41 c-160 101 -319 166 -440 178 -75 8 -76 6 -109 -96
-20 -66 -23 -95 -23 -230 1 -120 5 -165 17 -198 l17 -42 -51 -68 c-59 -77
-118 -198 -143 -292 -23 -88 -30 -283 -16 -409 53 -455 284 -720 719 -825 55
-13 127 -28 159 -31 32 -4 61 -9 65 -12 4 -2 -10 -30 -31 -61 -40 -60 -66
-120 -79 -187 -7 -38 -11 -41 -72 -64 -92 -34 -249 -35 -332 -2 -72 28 -155
102 -218 195 -98 146 -203 218 -325 224 -130 6 -138 -36 -22 -122 40 -30 84
-67 98 -82 41 -44 104 -146 129 -211 72 -179 210 -293 393 -323 68 -12 225 -9
305 6 l32 6 0 -200 0 -200 -26 -31 c-39 -47 -79 -49 -182 -11 -744 279 -1273
946 -1377 1735 -18 135 -20 374 -4 513 100 913 778 1663 1680 1858 200 43 479
55 689 29z"/>
</g>
</svg>
