<?xml version="1.0" standalone="no"?>
<!DOCTYPE svg PUBLIC "-//W3C//DTD SVG 20010904//EN"
 "http://www.w3.org/TR/2001/REC-SVG-20010904/DTD/svg10.dtd">
<svg version="1.0" xmlns="http://www.w3.org/2000/svg"
 width="597.000000pt" height="273.000000pt" viewBox="0 0 597.000000 273.000000"
 preserveAspectRatio="xMidYMid meet">

<g transform="translate(0.000000,273.000000) scale(0.100000,-0.100000)"
fill="#000000" stroke="none">
<path d="M3080 2695 c-47 -32 -202 -185 -463 -457 -119 -124 -249 -251 -289
-281 -40 -30 -138 -110 -218 -179 -245 -209 -257 -218 -296 -218 -45 0 -58 7
-185 101 -70 52 -115 79 -133 79 -41 0 -163 -124 -292 -297 -211 -283 -362
-462 -420 -499 -29 -19 -58 -43 -64 -53 -6 -12 -26 -22 -50 -26 -49 -8 -64
-24 -271 -297 -85 -111 -183 -235 -219 -277 -74 -86 -170 -210 -170 -221 0
-32 312 -56 391 -30 35 12 44 12 69 -3 30 -18 154 -22 255 -9 50 7 50 7 48 42
-2 41 -41 80 -79 80 -32 0 -94 26 -94 39 0 6 18 15 40 21 50 13 181 101 240
160 25 25 106 119 180 210 267 327 384 450 427 450 21 0 15 -22 -22 -77 -19
-28 -60 -93 -91 -145 -31 -51 -95 -144 -141 -206 -163 -218 -188 -308 -66
-236 56 32 73 27 73 -24 0 -49 15 -62 59 -50 61 17 119 90 210 266 46 89 110
204 142 255 32 50 76 122 99 159 49 79 86 118 111 118 29 0 30 -14 9 -82 -22
-68 -51 -296 -42 -331 8 -35 22 -47 55 -47 26 0 51 21 172 148 204 212 229
243 298 381 50 101 61 133 62 173 0 44 -4 53 -27 71 -28 21 -28 21 -52 1 -146
-115 -175 -130 -160 -81 3 12 26 49 49 82 23 33 55 85 70 115 35 70 124 219
143 243 25 28 37 14 37 -44 0 -53 1 -54 30 -57 30 -3 61 14 142 75 32 24 32
24 43 4 23 -43 94 -16 188 73 38 35 82 114 82 146 0 11 11 43 25 70 14 27 36
83 50 125 15 42 38 101 52 130 26 52 26 53 7 79 -15 21 -25 25 -46 22 -49 -9
-39 12 27 58 67 47 68 47 152 30 11 -2 46 -24 76 -49 31 -25 60 -45 66 -45 6
0 16 10 22 23 28 53 41 47 128 -63 38 -49 140 -157 226 -242 86 -84 286 -282
443 -440 158 -157 314 -305 347 -328 33 -24 92 -73 130 -110 39 -36 127 -117
197 -179 144 -127 170 -155 196 -214 10 -23 31 -48 46 -57 15 -8 91 -76 168
-151 121 -119 137 -138 119 -144 -28 -8 -41 0 -167 106 -60 50 -128 100 -152
111 -40 18 -45 18 -67 4 -34 -22 -56 -20 -95 9 -37 27 -80 33 -80 11 0 -21
101 -121 145 -144 49 -26 126 -88 154 -123 27 -35 37 -78 20 -83 -51 -16 -86
-15 -114 4 -156 105 -245 174 -274 211 -20 27 -51 52 -80 65 -57 26 -224 182
-284 267 -58 81 -102 121 -121 114 -25 -10 -19 -31 45 -153 33 -64 58 -123 55
-130 -18 -46 -63 3 -379 409 -42 55 -102 140 -133 190 -71 116 -119 167 -156
167 l-28 0 0 -77 c1 -142 19 -417 35 -502 8 -47 12 -101 9 -121 -12 -73 29
-190 67 -190 5 0 16 15 23 32 57 131 87 189 98 186 7 -3 19 -34 29 -70 18 -71
55 -147 100 -201 32 -39 89 -57 178 -57 55 0 62 -6 89 -75 11 -27 23 -58 27
-67 5 -12 -4 -24 -34 -44 -34 -22 -48 -25 -81 -20 -63 10 -90 -1 -90 -35 0
-34 -23 -49 -74 -49 -19 0 -81 -9 -138 -19 -57 -11 -125 -22 -153 -26 -64 -7
-115 -24 -115 -37 0 -7 92 -9 277 -7 253 4 278 3 281 -13 4 -22 -11 -25 -152
-33 -109 -7 -117 -8 -102 -23 15 -15 74 -17 624 -16 610 1 989 11 997 25 9 14
-49 46 -121 68 -78 23 -107 47 -102 83 3 20 9 23 53 26 75 4 80 7 61 37 -9 14
-14 30 -11 35 14 23 50 6 113 -56 97 -95 103 -98 183 -96 57 2 78 -2 135 -28
37 -16 71 -30 76 -30 15 0 -8 32 -82 115 -130 144 -153 167 -194 192 -23 14
-53 37 -68 51 -15 13 -69 46 -120 71 -72 35 -98 54 -113 81 -11 19 -40 52 -63
75 -24 22 -155 150 -291 285 -136 135 -273 265 -304 290 -31 25 -56 48 -57 51
0 3 24 23 54 43 112 77 202 197 246 328 38 112 40 275 6 383 -67 210 -218 365
-419 432 -71 23 -98 27 -207 27 -111 0 -133 -3 -200 -27 -149 -54 -255 -137
-341 -265 -28 -43 -52 -79 -54 -80 -2 -2 -65 68 -140 156 -139 163 -174 192
-235 192 -31 0 -65 30 -207 183 -31 33 -47 33 -93 2z m950 -610 c58 -19 160
-43 228 -54 121 -19 177 -41 169 -64 -4 -13 -100 -23 -232 -26 -94 -1 -155
-16 -155 -36 0 -8 6 -15 13 -16 6 0 23 -2 37 -4 14 -2 73 -6 133 -9 143 -8
218 -39 155 -66 -13 -5 -42 -14 -66 -20 -42 -11 -82 -40 -82 -60 0 -24 61 -40
157 -40 81 0 105 -4 137 -21 33 -18 49 -20 102 -14 52 5 71 3 113 -16 28 -12
51 -26 51 -30 0 -15 -42 -27 -121 -33 -41 -4 -121 -11 -177 -17 l-104 -10 -96
88 c-54 48 -186 175 -295 283 -178 176 -196 196 -175 202 35 10 93 0 208 -37z"/>
<path d="M1603 2130 c-28 -4 -76 -20 -106 -36 l-56 -27 -83 27 c-46 16 -94 26
-107 24 -21 -3 -18 -7 30 -40 30 -20 75 -46 101 -59 l46 -22 51 26 c28 15 57
27 64 27 14 0 177 79 177 86 0 6 -56 3 -117 -6z"/>
<path d="M887 1850 c-50 -9 -58 -20 -16 -20 40 0 80 -23 139 -79 24 -22 48
-41 53 -41 5 0 31 12 56 28 25 15 76 43 113 62 36 19 64 38 62 42 -10 16 -86
7 -140 -17 -72 -32 -82 -31 -132 5 -43 31 -65 34 -135 20z"/>
<path d="M2798 1569 c-9 -5 -31 -23 -50 -41 -19 -18 -56 -46 -81 -61 -35 -21
-56 -45 -84 -95 -50 -90 -112 -241 -113 -274 0 -26 3 -28 43 -28 106 0 197
114 265 331 16 52 37 109 46 127 9 17 16 33 16 35 0 11 -27 14 -42 6z"/>
<path d="M5210 1325 c-41 -30 -59 -31 -107 -5 -47 25 -81 25 -113 0 l-25 -20
46 0 c34 0 51 -6 65 -21 22 -24 86 -59 108 -59 8 0 17 8 21 18 10 29 94 84
131 85 43 1 44 12 3 21 -59 11 -95 6 -129 -19z"/>
<path d="M1615 437 c-68 -70 -86 -100 -99 -158 -7 -33 -66 -74 -151 -105 -84
-31 -129 -30 -180 1 -50 31 -93 31 -140 3 -19 -13 -50 -32 -67 -43 -17 -11
-42 -40 -55 -65 -23 -43 -23 -45 -6 -58 14 -10 37 -12 103 -5 83 8 253 8 415
1 44 -1 115 3 158 10 43 6 137 12 207 12 l129 0 16 29 c8 17 21 33 27 38 7 4
84 10 170 13 106 3 161 9 170 17 26 27 -10 36 -164 43 -151 8 -186 14 -200 34
-4 5 -37 12 -75 14 -84 5 -97 14 -88 61 13 69 12 84 -6 102 -11 11 -29 19 -40
19 -19 0 -21 4 -15 39 15 93 -18 93 -109 -2z"/>
</g>
</svg>
