<?xml version="1.0" standalone="no"?>
<!DOCTYPE svg PUBLIC "-//W3C//DTD SVG 20010904//EN"
 "http://www.w3.org/TR/2001/REC-SVG-20010904/DTD/svg10.dtd">
<svg version="1.0" xmlns="http://www.w3.org/2000/svg"
 width="920.000000pt" height="500.000000pt" viewBox="0 0 920.000000 500.000000"
 preserveAspectRatio="xMidYMid meet">

<g transform="translate(0.000000,500.000000) scale(0.100000,-0.100000)"
fill="#000000" stroke="none">
<path d="M2973 4495 c-178 -39 -325 -185 -368 -366 -22 -94 -22 -3157 0 -3262
39 -186 186 -333 372 -372 57 -12 311 -15 1624 -15 1082 0 1573 3 1614 11 182
33 336 175 386 354 12 42 14 314 14 1655 l0 1605 -23 66 c-12 36 -35 86 -51
110 -69 109 -198 195 -325 218 -41 8 -547 11 -1620 10 -1274 0 -1572 -3 -1623
-14z m762 -697 c62 -32 129 -103 158 -166 32 -72 30 -189 -5 -264 -95 -202
-359 -253 -516 -100 -74 73 -97 128 -97 237 0 93 13 132 68 206 27 38 101 89
151 105 65 22 180 13 241 -18z m1749 -828 c214 -54 364 -208 428 -437 22 -76
22 -95 26 -725 l3 -648 -275 0 -275 0 -3 548 c-3 541 -3 548 -26 603 -51 126
-136 182 -280 182 -75 0 -90 -3 -150 -34 -80 -41 -122 -92 -154 -187 -22 -65
-22 -80 -26 -589 l-3 -523 -260 0 -259 0 0 890 0 890 263 0 262 0 -3 -115 c-2
-63 0 -115 5 -115 4 0 19 16 32 36 65 95 214 195 341 228 83 22 261 20 354 -4z
m-1614 -920 l0 -890 -275 0 -275 0 0 890 0 890 275 0 275 0 0 -890z"/>
</g>
</svg>
